TITLE ""
FILE "LR_black_phrase_B02.mp3" MP3
  TRACK 01 AUDIO
    TITLE "LR_black_phrase_B02_001"
    INDEX 01 00:00:00
  TRACK 02 AUDIO
    TITLE "LR_black_phrase_B02_002"
    INDEX 01 00:00:14
  TRACK 03 AUDIO
    TITLE "LR_black_phrase_B02_003"
    INDEX 01 00:01:33
  TRACK 04 AUDIO
    TITLE "LR_black_phrase_B02_004"
    INDEX 01 00:01:72
  TRACK 05 AUDIO
    TITLE "LR_black_phrase_B02_005"
    INDEX 01 00:04:73
  TRACK 06 AUDIO
    TITLE "LR_black_phrase_B02_006"
    INDEX 01 00:05:72
  TRACK 07 AUDIO
    TITLE "LR_black_phrase_B02_007"
    INDEX 01 00:08:69
  TRACK 08 AUDIO
    TITLE "LR_black_phrase_B02_008"
    INDEX 01 00:09:33
  TRACK 09 AUDIO
    TITLE "LR_black_phrase_B02_009"
    INDEX 01 00:11:65
  TRACK 10 AUDIO
    TITLE "LR_black_phrase_B02_010"
    INDEX 01 00:12:12
  TRACK 11 AUDIO
    TITLE "LR_black_phrase_B02_011"
    INDEX 01 00:14:46
  TRACK 12 AUDIO
    TITLE "LR_black_phrase_B02_012"
    INDEX 01 00:15:43
  TRACK 13 AUDIO
    TITLE "LR_black_phrase_B02_013"
    INDEX 01 00:16:60
  TRACK 14 AUDIO
    TITLE "LR_black_phrase_B02_014"
    INDEX 01 00:17:24
  TRACK 15 AUDIO
    TITLE "LR_black_phrase_B02_015"
    INDEX 01 00:20:03
  TRACK 16 AUDIO
    TITLE "LR_black_phrase_B02_016"
    INDEX 01 00:21:03
  TRACK 17 AUDIO
    TITLE "LR_black_phrase_B02_017"
    INDEX 01 00:22:67
  TRACK 18 AUDIO
    TITLE "LR_black_phrase_B02_018"
    INDEX 01 00:23:29
  TRACK 19 AUDIO
    TITLE "LR_black_phrase_B02_019"
    INDEX 01 00:25:12
  TRACK 20 AUDIO
    TITLE "LR_black_phrase_B02_020"
    INDEX 01 00:25:40
  TRACK 21 AUDIO
    TITLE "LR_black_phrase_B02_021"
    INDEX 01 00:27:21
  TRACK 22 AUDIO
    TITLE "LR_black_phrase_B02_022"
    INDEX 01 00:28:24
  TRACK 23 AUDIO
    TITLE "LR_black_phrase_B02_023"
    INDEX 01 00:29:45
  TRACK 24 AUDIO
    TITLE "LR_black_phrase_B02_024"
    INDEX 01 00:30:07
  TRACK 25 AUDIO
    TITLE "LR_black_phrase_B02_025"
    INDEX 01 00:31:44
  TRACK 26 AUDIO
    TITLE "LR_black_phrase_B02_026"
    INDEX 01 00:32:44
  TRACK 27 AUDIO
    TITLE "LR_black_phrase_B02_027"
    INDEX 01 00:34:52
  TRACK 28 AUDIO
    TITLE "LR_black_phrase_B02_028"
    INDEX 01 00:35:15
  TRACK 29 AUDIO
    TITLE "LR_black_phrase_B02_029"
    INDEX 01 00:37:04
  TRACK 30 AUDIO
    TITLE "LR_black_phrase_B02_030"
    INDEX 01 00:37:33
  TRACK 31 AUDIO
    TITLE "LR_black_phrase_B02_031"
    INDEX 01 00:39:24
  TRACK 32 AUDIO
    TITLE "LR_black_phrase_B02_032"
    INDEX 01 00:40:24
  TRACK 33 AUDIO
    TITLE "LR_black_phrase_B02_033"
    INDEX 01 00:41:46
  TRACK 34 AUDIO
    TITLE "LR_black_phrase_B02_034"
    INDEX 01 00:42:11
  TRACK 35 AUDIO
    TITLE "LR_black_phrase_B02_035"
    INDEX 01 00:44:59
  TRACK 36 AUDIO
    TITLE "LR_black_phrase_B02_036"
    INDEX 01 00:45:56
  TRACK 37 AUDIO
    TITLE "LR_black_phrase_B02_037"
    INDEX 01 00:48:43
  TRACK 38 AUDIO
    TITLE "LR_black_phrase_B02_038"
    INDEX 01 00:49:09
  TRACK 39 AUDIO
    TITLE "LR_black_phrase_B02_039"
    INDEX 01 00:51:61
  TRACK 40 AUDIO
    TITLE "LR_black_phrase_B02_040"
    INDEX 01 00:52:15
  TRACK 41 AUDIO
    TITLE "LR_black_phrase_B02_041"
    INDEX 01 00:54:69
  TRACK 42 AUDIO
    TITLE "LR_black_phrase_B02_042"
    INDEX 01 00:55:72
  TRACK 43 AUDIO
    TITLE "LR_black_phrase_B02_043"
    INDEX 01 00:57:04
  TRACK 44 AUDIO
    TITLE "LR_black_phrase_B02_044"
    INDEX 01 00:57:38
  TRACK 45 AUDIO
    TITLE "LR_black_phrase_B02_045"
    INDEX 01 00:59:48
  TRACK 46 AUDIO
    TITLE "LR_black_phrase_B02_046"
    INDEX 01 01:00:48
  TRACK 47 AUDIO
    TITLE "LR_black_phrase_B02_047"
    INDEX 01 01:02:47
  TRACK 48 AUDIO
    TITLE "LR_black_phrase_B02_048"
    INDEX 01 01:03:09
  TRACK 49 AUDIO
    TITLE "LR_black_phrase_B02_049"
    INDEX 01 01:04:73
  TRACK 50 AUDIO
    TITLE "LR_black_phrase_B02_050"
    INDEX 01 01:05:25
  TRACK 51 AUDIO
    TITLE "LR_black_phrase_B02_051"
    INDEX 01 01:07:13
  TRACK 52 AUDIO
    TITLE "LR_black_phrase_B02_052"
    INDEX 01 01:08:14
  TRACK 53 AUDIO
    TITLE "LR_black_phrase_B02_053"
    INDEX 01 01:09:29
  TRACK 54 AUDIO
    TITLE "LR_black_phrase_B02_054"
    INDEX 01 01:09:68
  TRACK 55 AUDIO
    TITLE "LR_black_phrase_B02_055"
    INDEX 01 01:12:18
  TRACK 56 AUDIO
    TITLE "LR_black_phrase_B02_056"
    INDEX 01 01:13:17
  TRACK 57 AUDIO
    TITLE "LR_black_phrase_B02_057"
    INDEX 01 01:15:57
  TRACK 58 AUDIO
    TITLE "LR_black_phrase_B02_058"
    INDEX 01 01:16:15
  TRACK 59 AUDIO
    TITLE "LR_black_phrase_B02_059"
    INDEX 01 01:18:52
  TRACK 60 AUDIO
    TITLE "LR_black_phrase_B02_060"
    INDEX 01 01:18:67
  TRACK 61 AUDIO
    TITLE "LR_black_phrase_B02_061"
    INDEX 01 01:21:30
  TRACK 62 AUDIO
    TITLE "LR_black_phrase_B02_062"
    INDEX 01 01:22:28
  TRACK 63 AUDIO
    TITLE "LR_black_phrase_B02_063"
    INDEX 01 01:23:63
  TRACK 64 AUDIO
    TITLE "LR_black_phrase_B02_064"
    INDEX 01 01:24:27
  TRACK 65 AUDIO
    TITLE "LR_black_phrase_B02_065"
    INDEX 01 01:25:69
  TRACK 66 AUDIO
    TITLE "LR_black_phrase_B02_066"
    INDEX 01 01:26:67
  TRACK 67 AUDIO
    TITLE "LR_black_phrase_B02_067"
    INDEX 01 01:29:06
  TRACK 68 AUDIO
    TITLE "LR_black_phrase_B02_068"
    INDEX 01 01:29:45
  TRACK 69 AUDIO
    TITLE "LR_black_phrase_B02_069"
    INDEX 01 01:31:54
  TRACK 70 AUDIO
    TITLE "LR_black_phrase_B02_070"
    INDEX 01 01:32:12
  TRACK 71 AUDIO
    TITLE "LR_black_phrase_B02_071"
    INDEX 01 01:34:19
  TRACK 72 AUDIO
    TITLE "LR_black_phrase_B02_072"
    INDEX 01 01:35:25
  TRACK 73 AUDIO
    TITLE "LR_black_phrase_B02_073"
    INDEX 01 01:36:42
  TRACK 74 AUDIO
    TITLE "LR_black_phrase_B02_074"
    INDEX 01 01:37:08
  TRACK 75 AUDIO
    TITLE "LR_black_phrase_B02_075"
    INDEX 01 01:38:17
  TRACK 76 AUDIO
    TITLE "LR_black_phrase_B02_076"
    INDEX 01 01:39:16
  TRACK 77 AUDIO
    TITLE "LR_black_phrase_B02_077"
    INDEX 01 01:42:21
  TRACK 78 AUDIO
    TITLE "LR_black_phrase_B02_078"
    INDEX 01 01:42:58
  TRACK 79 AUDIO
    TITLE "LR_black_phrase_B02_079"
    INDEX 01 01:45:39
  TRACK 80 AUDIO
    TITLE "LR_black_phrase_B02_080"
    INDEX 01 01:45:70
  TRACK 81 AUDIO
    TITLE "LR_black_phrase_B02_081"
    INDEX 01 01:48:51
  TRACK 82 AUDIO
    TITLE "LR_black_phrase_B02_082"
    INDEX 01 01:49:58
  TRACK 83 AUDIO
    TITLE "LR_black_phrase_B02_083"
    INDEX 01 01:50:73
  TRACK 84 AUDIO
    TITLE "LR_black_phrase_B02_084"
    INDEX 01 01:51:37
  TRACK 85 AUDIO
    TITLE "LR_black_phrase_B02_085"
    INDEX 01 01:54:28
  TRACK 86 AUDIO
    TITLE "LR_black_phrase_B02_086"
    INDEX 01 01:55:33
  TRACK 87 AUDIO
    TITLE "LR_black_phrase_B02_087"
    INDEX 01 01:57:36
  TRACK 88 AUDIO
    TITLE "LR_black_phrase_B02_088"
    INDEX 01 01:57:75
  TRACK 89 AUDIO
    TITLE "LR_black_phrase_B02_089"
    INDEX 01 02:00:01
  TRACK 90 AUDIO
    TITLE "LR_black_phrase_B02_090"
    INDEX 01 02:00:30
  TRACK 91 AUDIO
    TITLE "LR_black_phrase_B02_091"
    INDEX 01 02:02:31
  TRACK 92 AUDIO
    TITLE "LR_black_phrase_B02_092"
    INDEX 01 02:03:35
  TRACK 93 AUDIO
    TITLE "LR_black_phrase_B02_093"
    INDEX 01 02:04:50
  TRACK 94 AUDIO
    TITLE "LR_black_phrase_B02_094"
    INDEX 01 02:05:18
  TRACK 95 AUDIO
    TITLE "LR_black_phrase_B02_095"
    INDEX 01 02:06:49
  TRACK 96 AUDIO
    TITLE "LR_black_phrase_B02_096"
    INDEX 01 02:07:48
  TRACK 97 AUDIO
    TITLE "LR_black_phrase_B02_097"
    INDEX 01 02:10:35
  TRACK 98 AUDIO
    TITLE "LR_black_phrase_B02_098"
    INDEX 01 02:10:72
  TRACK 99 AUDIO
    TITLE "LR_black_phrase_B02_099"
    INDEX 01 02:14:32
  TRACK 100 AUDIO
    TITLE "LR_black_phrase_B02_100"
    INDEX 01 02:14:58
  TRACK 101 AUDIO
    TITLE "LR_black_phrase_B02_101"
    INDEX 01 02:18:19
  TRACK 102 AUDIO
    TITLE "LR_black_phrase_B02_102"
    INDEX 01 02:19:20
  TRACK 103 AUDIO
    TITLE "LR_black_phrase_B02_103"
    INDEX 01 02:20:29
  TRACK 104 AUDIO
    TITLE "LR_black_phrase_B02_104"
    INDEX 01 02:20:68
  TRACK 105 AUDIO
    TITLE "LR_black_phrase_B02_105"
    INDEX 01 02:23:18
  TRACK 106 AUDIO
    TITLE "LR_black_phrase_B02_106"
    INDEX 01 02:24:17
  TRACK 107 AUDIO
    TITLE "LR_black_phrase_B02_107"
    INDEX 01 02:26:36
  TRACK 108 AUDIO
    TITLE "LR_black_phrase_B02_108"
    INDEX 01 02:26:75
  TRACK 109 AUDIO
    TITLE "LR_black_phrase_B02_109"
    INDEX 01 02:29:05
  TRACK 110 AUDIO
    TITLE "LR_black_phrase_B02_110"
    INDEX 01 02:29:34
  TRACK 111 AUDIO
    TITLE "LR_black_phrase_B02_111"
    INDEX 01 02:31:43
  TRACK 112 AUDIO
    TITLE "LR_black_phrase_B02_112"
    INDEX 01 02:32:48
  TRACK 113 AUDIO
    TITLE "LR_black_phrase_B02_113"
    INDEX 01 02:33:75
  TRACK 114 AUDIO
    TITLE "LR_black_phrase_B02_114"
    INDEX 01 02:34:39
  TRACK 115 AUDIO
    TITLE "LR_black_phrase_B02_115"
    INDEX 01 02:36:01
  TRACK 116 AUDIO
    TITLE "LR_black_phrase_B02_116"
    INDEX 01 02:36:75
  TRACK 117 AUDIO
    TITLE "LR_black_phrase_B02_117"
    INDEX 01 02:39:01
  TRACK 118 AUDIO
    TITLE "LR_black_phrase_B02_118"
    INDEX 01 02:39:44
  TRACK 119 AUDIO
    TITLE "LR_black_phrase_B02_119"
    INDEX 01 02:42:17
  TRACK 120 AUDIO
    TITLE "LR_black_phrase_B02_120"
    INDEX 01 02:42:48
  TRACK 121 AUDIO
    TITLE "LR_black_phrase_B02_121"
    INDEX 01 02:45:25
  TRACK 122 AUDIO
    TITLE "LR_black_phrase_B02_122"
    INDEX 01 02:46:31
  TRACK 123 AUDIO
    TITLE "LR_black_phrase_B02_123"
    INDEX 01 02:47:52
  TRACK 124 AUDIO
    TITLE "LR_black_phrase_B02_124"
    INDEX 01 02:48:18
  TRACK 125 AUDIO
    TITLE "LR_black_phrase_B02_125"
    INDEX 01 02:49:37
  TRACK 126 AUDIO
    TITLE "LR_black_phrase_B02_126"
    INDEX 01 02:50:38
  TRACK 127 AUDIO
    TITLE "LR_black_phrase_B02_127"
    INDEX 01 02:52:55
  TRACK 128 AUDIO
    TITLE "LR_black_phrase_B02_128"
    INDEX 01 02:53:17
  TRACK 129 AUDIO
    TITLE "LR_black_phrase_B02_129"
    INDEX 01 02:55:37
  TRACK 130 AUDIO
    TITLE "LR_black_phrase_B02_130"
    INDEX 01 02:55:69
  TRACK 131 AUDIO
    TITLE "LR_black_phrase_B02_131"
    INDEX 01 02:58:12
  TRACK 132 AUDIO
    TITLE "LR_black_phrase_B02_132"
    INDEX 01 02:59:17
  TRACK 133 AUDIO
    TITLE "LR_black_phrase_B02_133"
    INDEX 01 03:00:40
  TRACK 134 AUDIO
    TITLE "LR_black_phrase_B02_134"
    INDEX 01 03:01:05
  TRACK 135 AUDIO
    TITLE "LR_black_phrase_B02_135"
    INDEX 01 03:03:64
  TRACK 136 AUDIO
    TITLE "LR_black_phrase_B02_136"
    INDEX 01 03:04:64
  TRACK 137 AUDIO
    TITLE "LR_black_phrase_B02_137"
    INDEX 01 03:07:17
  TRACK 138 AUDIO
    TITLE "LR_black_phrase_B02_138"
    INDEX 01 03:07:54
  TRACK 139 AUDIO
    TITLE "LR_black_phrase_B02_139"
    INDEX 01 03:09:63
  TRACK 140 AUDIO
    TITLE "LR_black_phrase_B02_140"
    INDEX 01 03:10:17
  TRACK 141 AUDIO
    TITLE "LR_black_phrase_B02_141"
    INDEX 01 03:12:26
  TRACK 142 AUDIO
    TITLE "LR_black_phrase_B02_142"
    INDEX 01 03:13:29
  TRACK 143 AUDIO
    TITLE "LR_black_phrase_B02_143"
    INDEX 01 03:14:62
  TRACK 144 AUDIO
    TITLE "LR_black_phrase_B02_144"
    INDEX 01 03:15:24
  TRACK 145 AUDIO
    TITLE "LR_black_phrase_B02_145"
    INDEX 01 03:16:45
  TRACK 146 AUDIO
    TITLE "LR_black_phrase_B02_146"
    INDEX 01 03:17:45
  TRACK 147 AUDIO
    TITLE "LR_black_phrase_B02_147"
    INDEX 01 03:19:52
  TRACK 148 AUDIO
    TITLE "LR_black_phrase_B02_148"
    INDEX 01 03:20:18
  TRACK 149 AUDIO
    TITLE "LR_black_phrase_B02_149"
    INDEX 01 03:22:19
  TRACK 150 AUDIO
    TITLE "LR_black_phrase_B02_150"
    INDEX 01 03:22:48
  TRACK 151 AUDIO
    TITLE "LR_black_phrase_B02_151"
    INDEX 01 03:24:47
  TRACK 152 AUDIO
    TITLE "LR_black_phrase_B02_152"
    INDEX 01 03:25:52
  TRACK 153 AUDIO
    TITLE "LR_black_phrase_B02_153"
    INDEX 01 03:26:57
  TRACK 154 AUDIO
    TITLE "LR_black_phrase_B02_154"
    INDEX 01 03:27:28
  TRACK 155 AUDIO
    TITLE "LR_black_phrase_B02_155"
    INDEX 01 03:29:07
  TRACK 156 AUDIO
    TITLE "LR_black_phrase_B02_156"
    INDEX 01 03:30:08
  TRACK 157 AUDIO
    TITLE "LR_black_phrase_B02_157"
    INDEX 01 03:32:31
  TRACK 158 AUDIO
    TITLE "LR_black_phrase_B02_158"
    INDEX 01 03:32:70
  TRACK 159 AUDIO
    TITLE "LR_black_phrase_B02_159"
    INDEX 01 03:34:49
  TRACK 160 AUDIO
    TITLE "LR_black_phrase_B02_160"
    INDEX 01 03:35:05
  TRACK 161 AUDIO
    TITLE "LR_black_phrase_B02_161"
    INDEX 01 03:36:60
  TRACK 162 AUDIO
    TITLE "LR_black_phrase_B02_162"
    INDEX 01 03:37:65
  TRACK 163 AUDIO
    TITLE "LR_black_phrase_B02_163"
    INDEX 01 03:39:09
  TRACK 164 AUDIO
    TITLE "LR_black_phrase_B02_164"
    INDEX 01 03:39:46
  TRACK 165 AUDIO
    TITLE "LR_black_phrase_B02_165"
    INDEX 01 03:42:33
  TRACK 166 AUDIO
    TITLE "LR_black_phrase_B02_166"
    INDEX 01 03:43:32
  TRACK 167 AUDIO
    TITLE "LR_black_phrase_B02_167"
    INDEX 01 03:45:45
  TRACK 168 AUDIO
    TITLE "LR_black_phrase_B02_168"
    INDEX 01 03:46:09
  TRACK 169 AUDIO
    TITLE "LR_black_phrase_B02_169"
    INDEX 01 03:48:45
  TRACK 170 AUDIO
    TITLE "LR_black_phrase_B02_170"
    INDEX 01 03:48:73
  TRACK 171 AUDIO
    TITLE "LR_black_phrase_B02_171"
    INDEX 01 03:51:34
  TRACK 172 AUDIO
    TITLE "LR_black_phrase_B02_172"
    INDEX 01 03:52:35
  TRACK 173 AUDIO
    TITLE "LR_black_phrase_B02_173"
    INDEX 01 03:53:58
  TRACK 174 AUDIO
    TITLE "LR_black_phrase_B02_174"
    INDEX 01 03:54:22
  TRACK 175 AUDIO
    TITLE "LR_black_phrase_B02_175"
    INDEX 01 03:56:27
  TRACK 176 AUDIO
    TITLE "LR_black_phrase_B02_176"
    INDEX 01 03:57:29
  TRACK 177 AUDIO
    TITLE "LR_black_phrase_B02_177"
    INDEX 01 03:59:51
  TRACK 178 AUDIO
    TITLE "LR_black_phrase_B02_178"
    INDEX 01 04:00:15
  TRACK 179 AUDIO
    TITLE "LR_black_phrase_B02_179"
    INDEX 01 04:02:55
  TRACK 180 AUDIO
    TITLE "LR_black_phrase_B02_180"
    INDEX 01 04:03:10
  TRACK 181 AUDIO
    TITLE "LR_black_phrase_B02_181"
    INDEX 01 04:05:52
  TRACK 182 AUDIO
    TITLE "LR_black_phrase_B02_182"
    INDEX 01 04:06:55
  TRACK 183 AUDIO
    TITLE "LR_black_phrase_B02_183"
    INDEX 01 04:08:05
  TRACK 184 AUDIO
    TITLE "LR_black_phrase_B02_184"
    INDEX 01 04:08:44
  TRACK 185 AUDIO
    TITLE "LR_black_phrase_B02_185"
    INDEX 01 04:10:57
  TRACK 186 AUDIO
    TITLE "LR_black_phrase_B02_186"
    INDEX 01 04:11:54
  TRACK 187 AUDIO
    TITLE "LR_black_phrase_B02_187"
    INDEX 01 04:13:35
  TRACK 188 AUDIO
    TITLE "LR_black_phrase_B02_188"
    INDEX 01 04:13:75
  TRACK 189 AUDIO
    TITLE "LR_black_phrase_B02_189"
    INDEX 01 04:15:58
  TRACK 190 AUDIO
    TITLE "LR_black_phrase_B02_190"
    INDEX 01 04:16:12
  TRACK 191 AUDIO
    TITLE "LR_black_phrase_B02_191"
    INDEX 01 04:17:70
  TRACK 192 AUDIO
    TITLE "LR_black_phrase_B02_192"
    INDEX 01 04:19:01
  TRACK 193 AUDIO
    TITLE "LR_black_phrase_B02_193"
    INDEX 01 04:20:36
  TRACK 194 AUDIO
    TITLE "LR_black_phrase_B02_194"
    INDEX 01 04:20:75
  TRACK 195 AUDIO
    TITLE "LR_black_phrase_B02_195"
    INDEX 01 04:22:13
  TRACK 196 AUDIO
    TITLE "LR_black_phrase_B02_196"
    INDEX 01 04:23:12
  TRACK 197 AUDIO
    TITLE "LR_black_phrase_B02_197"
    INDEX 01 04:24:49
  TRACK 198 AUDIO
    TITLE "LR_black_phrase_B02_198"
    INDEX 01 04:25:13
  TRACK 199 AUDIO
    TITLE "LR_black_phrase_B02_199"
    INDEX 01 04:27:22
  TRACK 200 AUDIO
    TITLE "LR_black_phrase_B02_200"
    INDEX 01 04:27:53
  TRACK 201 AUDIO
    TITLE "LR_black_phrase_B02_201"
    INDEX 01 04:29:64
  TRACK 202 AUDIO
    TITLE "LR_black_phrase_B02_202"
    INDEX 01 04:30:67
  TRACK 203 AUDIO
    TITLE "LR_black_phrase_B02_203"
    INDEX 01 04:31:69
  TRACK 204 AUDIO
    TITLE "LR_black_phrase_B02_204"
    INDEX 01 04:32:33
  TRACK 205 AUDIO
    TITLE "LR_black_phrase_B02_205"
    INDEX 01 04:33:56
  TRACK 206 AUDIO
    TITLE "LR_black_phrase_B02_206"
    INDEX 01 04:34:51
  TRACK 207 AUDIO
    TITLE "LR_black_phrase_B02_207"
    INDEX 01 04:36:72
  TRACK 208 AUDIO
    TITLE "LR_black_phrase_B02_208"
    INDEX 01 04:37:36
  TRACK 209 AUDIO
    TITLE "LR_black_phrase_B02_209"
    INDEX 01 04:39:51
  TRACK 210 AUDIO
    TITLE "LR_black_phrase_B02_210"
    INDEX 01 04:40:05
  TRACK 211 AUDIO
    TITLE "LR_black_phrase_B02_211"
    INDEX 01 04:42:21
  TRACK 212 AUDIO
    TITLE "LR_black_phrase_B02_212"
    INDEX 01 04:43:25
  TRACK 213 AUDIO
    TITLE "LR_black_phrase_B02_213"
    INDEX 01 04:44:54
  TRACK 214 AUDIO
    TITLE "LR_black_phrase_B02_214"
    INDEX 01 04:45:14
  TRACK 215 AUDIO
    TITLE "LR_black_phrase_B02_215"
    INDEX 01 04:47:21
  TRACK 216 AUDIO
    TITLE "LR_black_phrase_B02_216"
    INDEX 01 04:48:22
  TRACK 217 AUDIO
    TITLE "LR_black_phrase_B02_217"
    INDEX 01 04:49:70
  TRACK 218 AUDIO
    TITLE "LR_black_phrase_B02_218"
    INDEX 01 04:50:31
  TRACK 219 AUDIO
    TITLE "LR_black_phrase_B02_219"
    INDEX 01 04:52:30
  TRACK 220 AUDIO
    TITLE "LR_black_phrase_B02_220"
    INDEX 01 04:52:55
  TRACK 221 AUDIO
    TITLE "LR_black_phrase_B02_221"
    INDEX 01 04:54:56
  TRACK 222 AUDIO
    TITLE "LR_black_phrase_B02_222"
    INDEX 01 04:55:59
  TRACK 223 AUDIO
    TITLE "LR_black_phrase_B02_223"
    INDEX 01 04:57:01
  TRACK 224 AUDIO
    TITLE "LR_black_phrase_B02_224"
    INDEX 01 04:57:43
  TRACK 225 AUDIO
    TITLE "LR_black_phrase_B02_225"
    INDEX 01 04:59:75
  TRACK 226 AUDIO
    TITLE "LR_black_phrase_B02_226"
    INDEX 01 05:00:72
  TRACK 227 AUDIO
    TITLE "LR_black_phrase_B02_227"
    INDEX 01 05:02:57
  TRACK 228 AUDIO
    TITLE "LR_black_phrase_B02_228"
    INDEX 01 05:03:22
  TRACK 229 AUDIO
    TITLE "LR_black_phrase_B02_229"
    INDEX 01 05:05:46
  TRACK 230 AUDIO
    TITLE "LR_black_phrase_B02_230"
    INDEX 01 05:05:75
  TRACK 231 AUDIO
    TITLE "LR_black_phrase_B02_231"
    INDEX 01 05:08:23
  TRACK 232 AUDIO
    TITLE "LR_black_phrase_B02_232"
    INDEX 01 05:09:26
  TRACK 233 AUDIO
    TITLE "LR_black_phrase_B02_233"
    INDEX 01 05:10:49
  TRACK 234 AUDIO
    TITLE "LR_black_phrase_B02_234"
    INDEX 01 05:11:15
  TRACK 235 AUDIO
    TITLE "LR_black_phrase_B02_235"
    INDEX 01 05:14:66
  TRACK 236 AUDIO
    TITLE "LR_black_phrase_B02_236"
    INDEX 01 05:15:64
  TRACK 237 AUDIO
    TITLE "LR_black_phrase_B02_237"
    INDEX 01 05:17:71
  TRACK 238 AUDIO
    TITLE "LR_black_phrase_B02_238"
    INDEX 01 05:18:35
  TRACK 239 AUDIO
    TITLE "LR_black_phrase_B02_239"
    INDEX 01 05:20:48
  TRACK 240 AUDIO
    TITLE "LR_black_phrase_B02_240"
    INDEX 01 05:21:02
  TRACK 241 AUDIO
    TITLE "LR_black_phrase_B02_241"
    INDEX 01 05:23:16
  TRACK 242 AUDIO
    TITLE "LR_black_phrase_B02_242"
    INDEX 01 05:24:20
  TRACK 243 AUDIO
    TITLE "LR_black_phrase_B02_243"
    INDEX 01 05:25:33
  TRACK 244 AUDIO
    TITLE "LR_black_phrase_B02_244"
    INDEX 01 05:25:64
  TRACK 245 AUDIO
    TITLE "LR_black_phrase_B02_245"
    INDEX 01 05:29:68
  TRACK 246 AUDIO
    TITLE "LR_black_phrase_B02_246"
    INDEX 01 05:30:71
  TRACK 247 AUDIO
    TITLE "LR_black_phrase_B02_247"
    INDEX 01 05:33:09
  TRACK 248 AUDIO
    TITLE "LR_black_phrase_B02_248"
    INDEX 01 05:33:48
  TRACK 249 AUDIO
    TITLE "LR_black_phrase_B02_249"
    INDEX 01 05:35:49
  TRACK 250 AUDIO
    TITLE "LR_black_phrase_B02_250"
    INDEX 01 05:36:07
  TRACK 251 AUDIO
    TITLE "LR_black_phrase_B02_251"
    INDEX 01 05:38:08
  TRACK 252 AUDIO
    TITLE "LR_black_phrase_B02_252"
    INDEX 01 05:39:12
  TRACK 253 AUDIO
    TITLE "LR_black_phrase_B02_253"
    INDEX 01 05:40:21
  TRACK 254 AUDIO
    TITLE "LR_black_phrase_B02_254"
    INDEX 01 05:40:66
  TRACK 255 AUDIO
    TITLE "LR_black_phrase_B02_255"
    INDEX 01 05:43:05
  TRACK 256 AUDIO
    TITLE "LR_black_phrase_B02_256"
    INDEX 01 05:43:74
  TRACK 257 AUDIO
    TITLE "LR_black_phrase_B02_257"
    INDEX 01 05:45:46
  TRACK 258 AUDIO
    TITLE "LR_black_phrase_B02_258"
    INDEX 01 05:46:06
  TRACK 259 AUDIO
    TITLE "LR_black_phrase_B02_259"
    INDEX 01 05:47:72
  TRACK 260 AUDIO
    TITLE "LR_black_phrase_B02_260"
    INDEX 01 05:48:28
  TRACK 261 AUDIO
    TITLE "LR_black_phrase_B02_261"
    INDEX 01 05:50:17
  TRACK 262 AUDIO
    TITLE "LR_black_phrase_B02_262"
    INDEX 01 05:51:21
  TRACK 263 AUDIO
    TITLE "LR_black_phrase_B02_263"
    INDEX 01 05:52:42
  TRACK 264 AUDIO
    TITLE "LR_black_phrase_B02_264"
    INDEX 01 05:53:08
  TRACK 265 AUDIO
    TITLE "LR_black_phrase_B02_265"
    INDEX 01 05:54:44
  TRACK 266 AUDIO
    TITLE "LR_black_phrase_B02_266"
    INDEX 01 05:55:46
  TRACK 267 AUDIO
    TITLE "LR_black_phrase_B02_267"
    INDEX 01 05:58:19
  TRACK 268 AUDIO
    TITLE "LR_black_phrase_B02_268"
    INDEX 01 05:58:58
  TRACK 269 AUDIO
    TITLE "LR_black_phrase_B02_269"
    INDEX 01 06:00:74
  TRACK 270 AUDIO
    TITLE "LR_black_phrase_B02_270"
    INDEX 01 06:01:29
  TRACK 271 AUDIO
    TITLE "LR_black_phrase_B02_271"
    INDEX 01 06:03:47
  TRACK 272 AUDIO
    TITLE "LR_black_phrase_B02_272"
    INDEX 01 06:04:53
  TRACK 273 AUDIO
    TITLE "LR_black_phrase_B02_273"
    INDEX 01 06:06:01
  TRACK 274 AUDIO
    TITLE "LR_black_phrase_B02_274"
    INDEX 01 06:06:42
  TRACK 275 AUDIO
    TITLE "LR_black_phrase_B02_275"
    INDEX 01 06:09:17
  TRACK 276 AUDIO
    TITLE "LR_black_phrase_B02_276"
    INDEX 01 06:10:16
  TRACK 277 AUDIO
    TITLE "LR_black_phrase_B02_277"
    INDEX 01 06:13:12
  TRACK 278 AUDIO
    TITLE "LR_black_phrase_B02_278"
    INDEX 01 06:13:46
  TRACK 279 AUDIO
    TITLE "LR_black_phrase_B02_279"
    INDEX 01 06:16:56
  TRACK 280 AUDIO
    TITLE "LR_black_phrase_B02_280"
    INDEX 01 06:17:02
  TRACK 281 AUDIO
    TITLE "LR_black_phrase_B02_281"
    INDEX 01 06:20:14
  TRACK 282 AUDIO
    TITLE "LR_black_phrase_B02_282"
    INDEX 01 06:21:10
  TRACK 283 AUDIO
    TITLE "LR_black_phrase_B02_283"
    INDEX 01 06:22:19
  TRACK 284 AUDIO
    TITLE "LR_black_phrase_B02_284"
    INDEX 01 06:22:55
  TRACK 285 AUDIO
    TITLE "LR_black_phrase_B02_285"
    INDEX 01 06:25:29
  TRACK 286 AUDIO
    TITLE "LR_black_phrase_B02_286"
    INDEX 01 06:26:27
  TRACK 287 AUDIO
    TITLE "LR_black_phrase_B02_287"
    INDEX 01 06:28:73
  TRACK 288 AUDIO
    TITLE "LR_black_phrase_B02_288"
    INDEX 01 06:29:39
  TRACK 289 AUDIO
    TITLE "LR_black_phrase_B02_289"
    INDEX 01 06:32:18
  TRACK 290 AUDIO
    TITLE "LR_black_phrase_B02_290"
    INDEX 01 06:32:47
  TRACK 291 AUDIO
    TITLE "LR_black_phrase_B02_291"
    INDEX 01 06:35:24
  TRACK 292 AUDIO
    TITLE "LR_black_phrase_B02_292"
    INDEX 01 06:36:23
  TRACK 293 AUDIO
    TITLE "LR_black_phrase_B02_293"
    INDEX 01 06:37:33
  TRACK 294 AUDIO
    TITLE "LR_black_phrase_B02_294"
    INDEX 01 06:37:72
  TRACK 295 AUDIO
    TITLE "LR_black_phrase_B02_295"
    INDEX 01 06:40:43
  TRACK 296 AUDIO
    TITLE "LR_black_phrase_B02_296"
    INDEX 01 06:41:42
  TRACK 297 AUDIO
    TITLE "LR_black_phrase_B02_297"
    INDEX 01 06:43:53
  TRACK 298 AUDIO
    TITLE "LR_black_phrase_B02_298"
    INDEX 01 06:44:13
  TRACK 299 AUDIO
    TITLE "LR_black_phrase_B02_299"
    INDEX 01 06:46:31
  TRACK 300 AUDIO
    TITLE "LR_black_phrase_B02_300"
    INDEX 01 06:46:55
  TRACK 301 AUDIO
    TITLE "LR_black_phrase_B02_301"
    INDEX 01 06:48:73
